<?xml version="1.0" encoding="UTF-8" standalone="no"?>
<!DOCTYPE svg PUBLIC "-//W3C//DTD SVG 1.1//EN"
 "http://www.w3.org/Graphics/SVG/1.1/DTD/svg11.dtd">
<!-- Generated by graphviz version 2.49.1 (0)
 -->
<!-- Title: snakemake_dag Pages: 1 -->
<svg width="491pt" height="404pt"
 viewBox="0.00 0.00 491.00 404.00" xmlns="http://www.w3.org/2000/svg" xmlns:xlink="http://www.w3.org/1999/xlink">
<g id="graph0" class="graph" transform="scale(1 1) rotate(0) translate(4 400)">
<title>snakemake_dag</title>
<polygon fill="white" stroke="transparent" points="-4,4 -4,-400 487,-400 487,4 -4,4"/>
<!-- 0 -->
<g id="node1" class="node">
<title>0</title>
<path fill="none" stroke="#88d856" stroke-width="2" d="M231,-36C231,-36 201,-36 201,-36 195,-36 189,-30 189,-24 189,-24 189,-12 189,-12 189,-6 195,0 201,0 201,0 231,0 231,0 237,0 243,-6 243,-12 243,-12 243,-24 243,-24 243,-30 237,-36 231,-36"/>
<text text-anchor="middle" x="216" y="-15.5" font-family="sans" font-size="10.00">all</text>
</g>
<!-- 1 -->
<g id="node2" class="node">
<title>1</title>
<path fill="none" stroke="#d8bc56" stroke-width="2" d="M246.5,-108C246.5,-108 185.5,-108 185.5,-108 179.5,-108 173.5,-102 173.5,-96 173.5,-96 173.5,-84 173.5,-84 173.5,-78 179.5,-72 185.5,-72 185.5,-72 246.5,-72 246.5,-72 252.5,-72 258.5,-78 258.5,-84 258.5,-84 258.5,-96 258.5,-96 258.5,-102 252.5,-108 246.5,-108"/>
<text text-anchor="middle" x="216" y="-87.5" font-family="sans" font-size="10.00">PCA_clustering</text>
</g>
<!-- 1&#45;&gt;0 -->
<g id="edge1" class="edge">
<title>1&#45;&gt;0</title>
<path fill="none" stroke="grey" stroke-width="2" d="M216,-71.7C216,-63.98 216,-54.71 216,-46.11"/>
<polygon fill="grey" stroke="grey" stroke-width="2" points="219.5,-46.1 216,-36.1 212.5,-46.1 219.5,-46.1"/>
</g>
<!-- 2 -->
<g id="node3" class="node">
<title>2</title>
<path fill="none" stroke="#56d8c1" stroke-width="2" d="M195,-180C195,-180 159,-180 159,-180 153,-180 147,-174 147,-168 147,-168 147,-156 147,-156 147,-150 153,-144 159,-144 159,-144 195,-144 195,-144 201,-144 207,-150 207,-156 207,-156 207,-168 207,-168 207,-174 201,-180 195,-180"/>
<text text-anchor="middle" x="177" y="-159.5" font-family="sans" font-size="10.00">star_align</text>
</g>
<!-- 2&#45;&gt;1 -->
<g id="edge2" class="edge">
<title>2&#45;&gt;1</title>
<path fill="none" stroke="grey" stroke-width="2" d="M186.64,-143.7C191.13,-135.64 196.56,-125.89 201.52,-116.98"/>
<polygon fill="grey" stroke="grey" stroke-width="2" points="204.66,-118.54 206.47,-108.1 198.55,-115.14 204.66,-118.54"/>
</g>
<!-- 3 -->
<g id="node4" class="node">
<title>3</title>
<path fill="none" stroke="#568ad8" stroke-width="2" d="M135.5,-252C135.5,-252 86.5,-252 86.5,-252 80.5,-252 74.5,-246 74.5,-240 74.5,-240 74.5,-228 74.5,-228 74.5,-222 80.5,-216 86.5,-216 86.5,-216 135.5,-216 135.5,-216 141.5,-216 147.5,-222 147.5,-228 147.5,-228 147.5,-240 147.5,-240 147.5,-246 141.5,-252 135.5,-252"/>
<text text-anchor="middle" x="111" y="-231.5" font-family="sans" font-size="10.00">gunzip_fastq</text>
</g>
<!-- 3&#45;&gt;2 -->
<g id="edge4" class="edge">
<title>3&#45;&gt;2</title>
<path fill="none" stroke="grey" stroke-width="2" d="M127.31,-215.7C135.31,-207.22 145.07,-196.86 153.82,-187.58"/>
<polygon fill="grey" stroke="grey" stroke-width="2" points="156.56,-189.78 160.87,-180.1 151.47,-184.98 156.56,-189.78"/>
</g>
<!-- 4 -->
<g id="node5" class="node">
<title>4</title>
<path fill="none" stroke="#d85656" stroke-width="2" d="M128,-324C128,-324 80,-324 80,-324 74,-324 68,-318 68,-312 68,-312 68,-300 68,-300 68,-294 74,-288 80,-288 80,-288 128,-288 128,-288 134,-288 140,-294 140,-300 140,-300 140,-312 140,-312 140,-318 134,-324 128,-324"/>
<text text-anchor="middle" x="104" y="-303.5" font-family="sans" font-size="10.00">sra_to_fastq</text>
</g>
<!-- 4&#45;&gt;3 -->
<g id="edge6" class="edge">
<title>4&#45;&gt;3</title>
<path fill="none" stroke="grey" stroke-width="2" d="M105.73,-287.7C106.5,-279.98 107.43,-270.71 108.29,-262.11"/>
<polygon fill="grey" stroke="grey" stroke-width="2" points="111.78,-262.4 109.29,-252.1 104.81,-261.71 111.78,-262.4"/>
</g>
<!-- 5 -->
<g id="node6" class="node">
<title>5</title>
<path fill="none" stroke="#bed856" stroke-width="2" stroke-dasharray="5,2" d="M102,-396C102,-396 12,-396 12,-396 6,-396 0,-390 0,-384 0,-384 0,-372 0,-372 0,-366 6,-360 12,-360 12,-360 102,-360 102,-360 108,-360 114,-366 114,-372 114,-372 114,-384 114,-384 114,-390 108,-396 102,-396"/>
<text text-anchor="middle" x="57" y="-381" font-family="sans" font-size="10.00">prefetch_sra</text>
<text text-anchor="middle" x="57" y="-370" font-family="sans" font-size="10.00">sample: SRR9670112</text>
</g>
<!-- 5&#45;&gt;4 -->
<g id="edge7" class="edge">
<title>5&#45;&gt;4</title>
<path fill="none" stroke="grey" stroke-width="2" d="M68.62,-359.7C74.14,-351.47 80.85,-341.48 86.93,-332.42"/>
<polygon fill="grey" stroke="grey" stroke-width="2" points="89.85,-334.36 92.52,-324.1 84.04,-330.46 89.85,-334.36"/>
</g>
<!-- 6 -->
<g id="node7" class="node">
<title>6</title>
<path fill="none" stroke="#56c1d8" stroke-width="2" d="M248,-252C248,-252 184,-252 184,-252 178,-252 172,-246 172,-240 172,-240 172,-228 172,-228 172,-222 178,-216 184,-216 184,-216 248,-216 248,-216 254,-216 260,-222 260,-228 260,-228 260,-240 260,-240 260,-246 254,-252 248,-252"/>
<text text-anchor="middle" x="216" y="-231.5" font-family="sans" font-size="10.00">index_reference</text>
</g>
<!-- 6&#45;&gt;2 -->
<g id="edge5" class="edge">
<title>6&#45;&gt;2</title>
<path fill="none" stroke="grey" stroke-width="2" d="M206.36,-215.7C201.87,-207.64 196.44,-197.89 191.48,-188.98"/>
<polygon fill="grey" stroke="grey" stroke-width="2" points="194.45,-187.14 186.53,-180.1 188.34,-190.54 194.45,-187.14"/>
</g>
<!-- 10 -->
<g id="node11" class="node">
<title>10</title>
<path fill="none" stroke="#56d8c1" stroke-width="2" d="M273,-180C273,-180 237,-180 237,-180 231,-180 225,-174 225,-168 225,-168 225,-156 225,-156 225,-150 231,-144 237,-144 237,-144 273,-144 273,-144 279,-144 285,-150 285,-156 285,-156 285,-168 285,-168 285,-174 279,-180 273,-180"/>
<text text-anchor="middle" x="255" y="-159.5" font-family="sans" font-size="10.00">star_align</text>
</g>
<!-- 6&#45;&gt;10 -->
<g id="edge12" class="edge">
<title>6&#45;&gt;10</title>
<path fill="none" stroke="grey" stroke-width="2" d="M225.64,-215.7C230.13,-207.64 235.56,-197.89 240.52,-188.98"/>
<polygon fill="grey" stroke="grey" stroke-width="2" points="243.66,-190.54 245.47,-180.1 237.55,-187.14 243.66,-190.54"/>
</g>
<!-- 7 -->
<g id="node8" class="node">
<title>7</title>
<path fill="none" stroke="#59d856" stroke-width="2" stroke-dasharray="5,2" d="M251,-324C251,-324 181,-324 181,-324 175,-324 169,-318 169,-312 169,-312 169,-300 169,-300 169,-294 175,-288 181,-288 181,-288 251,-288 251,-288 257,-288 263,-294 263,-300 263,-300 263,-312 263,-312 263,-318 257,-324 251,-324"/>
<text text-anchor="middle" x="216" y="-303.5" font-family="sans" font-size="10.00">gunzip_reference</text>
</g>
<!-- 7&#45;&gt;6 -->
<g id="edge8" class="edge">
<title>7&#45;&gt;6</title>
<path fill="none" stroke="grey" stroke-width="2" d="M216,-287.7C216,-279.98 216,-270.71 216,-262.11"/>
<polygon fill="grey" stroke="grey" stroke-width="2" points="219.5,-262.1 216,-252.1 212.5,-262.1 219.5,-262.1"/>
</g>
<!-- 8 -->
<g id="node9" class="node">
<title>8</title>
<path fill="none" stroke="#d88d56" stroke-width="2" stroke-dasharray="5,2" d="M338.5,-396C338.5,-396 257.5,-396 257.5,-396 251.5,-396 245.5,-390 245.5,-384 245.5,-384 245.5,-372 245.5,-372 245.5,-366 251.5,-360 257.5,-360 257.5,-360 338.5,-360 338.5,-360 344.5,-360 350.5,-366 350.5,-372 350.5,-372 350.5,-384 350.5,-384 350.5,-390 344.5,-396 338.5,-396"/>
<text text-anchor="middle" x="298" y="-375.5" font-family="sans" font-size="10.00">get_reference_fasta</text>
</g>
<!-- 8&#45;&gt;7 -->
<g id="edge9" class="edge">
<title>8&#45;&gt;7</title>
<path fill="none" stroke="grey" stroke-width="2" d="M277.73,-359.7C267.5,-350.97 254.94,-340.24 243.82,-330.75"/>
<polygon fill="grey" stroke="grey" stroke-width="2" points="245.91,-327.94 236.04,-324.1 241.37,-333.26 245.91,-327.94"/>
</g>
<!-- 9 -->
<g id="node10" class="node">
<title>9</title>
<path fill="none" stroke="#56d88a" stroke-width="2" stroke-dasharray="5,2" d="M215.5,-396C215.5,-396 144.5,-396 144.5,-396 138.5,-396 132.5,-390 132.5,-384 132.5,-384 132.5,-372 132.5,-372 132.5,-366 138.5,-360 144.5,-360 144.5,-360 215.5,-360 215.5,-360 221.5,-360 227.5,-366 227.5,-372 227.5,-372 227.5,-384 227.5,-384 227.5,-390 221.5,-396 215.5,-396"/>
<text text-anchor="middle" x="180" y="-375.5" font-family="sans" font-size="10.00">get_reference_gtf</text>
</g>
<!-- 9&#45;&gt;7 -->
<g id="edge10" class="edge">
<title>9&#45;&gt;7</title>
<path fill="none" stroke="grey" stroke-width="2" d="M188.9,-359.7C193,-351.73 197.95,-342.1 202.49,-333.26"/>
<polygon fill="grey" stroke="grey" stroke-width="2" points="205.74,-334.6 207.2,-324.1 199.52,-331.4 205.74,-334.6"/>
</g>
<!-- 10&#45;&gt;1 -->
<g id="edge3" class="edge">
<title>10&#45;&gt;1</title>
<path fill="none" stroke="grey" stroke-width="2" d="M245.36,-143.7C240.87,-135.64 235.44,-125.89 230.48,-116.98"/>
<polygon fill="grey" stroke="grey" stroke-width="2" points="233.45,-115.14 225.53,-108.1 227.34,-118.54 233.45,-115.14"/>
</g>
<!-- 11 -->
<g id="node12" class="node">
<title>11</title>
<path fill="none" stroke="#568ad8" stroke-width="2" d="M376.5,-252C376.5,-252 327.5,-252 327.5,-252 321.5,-252 315.5,-246 315.5,-240 315.5,-240 315.5,-228 315.5,-228 315.5,-222 321.5,-216 327.5,-216 327.5,-216 376.5,-216 376.5,-216 382.5,-216 388.5,-222 388.5,-228 388.5,-228 388.5,-240 388.5,-240 388.5,-246 382.5,-252 376.5,-252"/>
<text text-anchor="middle" x="352" y="-231.5" font-family="sans" font-size="10.00">gunzip_fastq</text>
</g>
<!-- 11&#45;&gt;10 -->
<g id="edge11" class="edge">
<title>11&#45;&gt;10</title>
<path fill="none" stroke="grey" stroke-width="2" d="M328.02,-215.7C315.69,-206.8 300.48,-195.82 287.15,-186.2"/>
<polygon fill="grey" stroke="grey" stroke-width="2" points="288.86,-183.12 278.7,-180.1 284.76,-188.79 288.86,-183.12"/>
</g>
<!-- 12 -->
<g id="node13" class="node">
<title>12</title>
<path fill="none" stroke="#d85656" stroke-width="2" d="M413,-324C413,-324 365,-324 365,-324 359,-324 353,-318 353,-312 353,-312 353,-300 353,-300 353,-294 359,-288 365,-288 365,-288 413,-288 413,-288 419,-288 425,-294 425,-300 425,-300 425,-312 425,-312 425,-318 419,-324 413,-324"/>
<text text-anchor="middle" x="389" y="-303.5" font-family="sans" font-size="10.00">sra_to_fastq</text>
</g>
<!-- 12&#45;&gt;11 -->
<g id="edge13" class="edge">
<title>12&#45;&gt;11</title>
<path fill="none" stroke="grey" stroke-width="2" d="M379.85,-287.7C375.6,-279.64 370.44,-269.89 365.73,-260.98"/>
<polygon fill="grey" stroke="grey" stroke-width="2" points="368.81,-259.31 361.04,-252.1 362.62,-262.58 368.81,-259.31"/>
</g>
<!-- 13 -->
<g id="node14" class="node">
<title>13</title>
<path fill="none" stroke="#bed856" stroke-width="2" stroke-dasharray="5,2" d="M471,-396C471,-396 381,-396 381,-396 375,-396 369,-390 369,-384 369,-384 369,-372 369,-372 369,-366 375,-360 381,-360 381,-360 471,-360 471,-360 477,-360 483,-366 483,-372 483,-372 483,-384 483,-384 483,-390 477,-396 471,-396"/>
<text text-anchor="middle" x="426" y="-381" font-family="sans" font-size="10.00">prefetch_sra</text>
<text text-anchor="middle" x="426" y="-370" font-family="sans" font-size="10.00">sample: SRR9670123</text>
</g>
<!-- 13&#45;&gt;12 -->
<g id="edge14" class="edge">
<title>13&#45;&gt;12</title>
<path fill="none" stroke="grey" stroke-width="2" d="M416.85,-359.7C412.6,-351.64 407.44,-341.89 402.73,-332.98"/>
<polygon fill="grey" stroke="grey" stroke-width="2" points="405.81,-331.31 398.04,-324.1 399.62,-334.58 405.81,-331.31"/>
</g>
</g>
</svg>
