<?xml version="1.0" encoding="UTF-8" standalone="no"?>
<!DOCTYPE svg PUBLIC "-//W3C//DTD SVG 1.1//EN"
 "http://www.w3.org/Graphics/SVG/1.1/DTD/svg11.dtd">
<!-- Generated by graphviz version 2.49.1 (0)
 -->
<!-- Title: snakemake_dag Pages: 1 -->
<svg width="154pt" height="404pt"
 viewBox="0.00 0.00 153.50 404.00" xmlns="http://www.w3.org/2000/svg" xmlns:xlink="http://www.w3.org/1999/xlink">
<g id="graph0" class="graph" transform="scale(1 1) rotate(0) translate(4 400)">
<title>snakemake_dag</title>
<polygon fill="white" stroke="transparent" points="-4,4 -4,-400 149.5,-400 149.5,4 -4,4"/>
<!-- 0 -->
<g id="node1" class="node">
<title>0</title>
<path fill="none" stroke="#56d8c9" stroke-width="2" d="M92.5,-36C92.5,-36 62.5,-36 62.5,-36 56.5,-36 50.5,-30 50.5,-24 50.5,-24 50.5,-12 50.5,-12 50.5,-6 56.5,0 62.5,0 62.5,0 92.5,0 92.5,0 98.5,0 104.5,-6 104.5,-12 104.5,-12 104.5,-24 104.5,-24 104.5,-30 98.5,-36 92.5,-36"/>
<text text-anchor="middle" x="77.5" y="-15.5" font-family="sans" font-size="10.00">all</text>
</g>
<!-- 1 -->
<g id="node2" class="node">
<title>1</title>
<path fill="none" stroke="#c6d856" stroke-width="2" d="M66.5,-108C66.5,-108 30.5,-108 30.5,-108 24.5,-108 18.5,-102 18.5,-96 18.5,-96 18.5,-84 18.5,-84 18.5,-78 24.5,-72 30.5,-72 30.5,-72 66.5,-72 66.5,-72 72.5,-72 78.5,-78 78.5,-84 78.5,-84 78.5,-96 78.5,-96 78.5,-102 72.5,-108 66.5,-108"/>
<text text-anchor="middle" x="48.5" y="-87.5" font-family="sans" font-size="10.00">star_align</text>
</g>
<!-- 1&#45;&gt;0 -->
<g id="edge1" class="edge">
<title>1&#45;&gt;0</title>
<path fill="none" stroke="grey" stroke-width="2" d="M55.67,-71.7C58.93,-63.81 62.87,-54.3 66.5,-45.55"/>
<polygon fill="grey" stroke="grey" stroke-width="2" points="69.82,-46.68 70.41,-36.1 63.35,-44 69.82,-46.68"/>
</g>
<!-- 2 -->
<g id="node3" class="node">
<title>2</title>
<path fill="none" stroke="#d8a456" stroke-width="2" d="M61,-180C61,-180 12,-180 12,-180 6,-180 0,-174 0,-168 0,-168 0,-156 0,-156 0,-150 6,-144 12,-144 12,-144 61,-144 61,-144 67,-144 73,-150 73,-156 73,-156 73,-168 73,-168 73,-174 67,-180 61,-180"/>
<text text-anchor="middle" x="36.5" y="-159.5" font-family="sans" font-size="10.00">gunzip_fastq</text>
</g>
<!-- 2&#45;&gt;1 -->
<g id="edge3" class="edge">
<title>2&#45;&gt;1</title>
<path fill="none" stroke="grey" stroke-width="2" d="M39.47,-143.7C40.79,-135.98 42.38,-126.71 43.85,-118.11"/>
<polygon fill="grey" stroke="grey" stroke-width="2" points="47.33,-118.55 45.57,-108.1 40.43,-117.37 47.33,-118.55"/>
</g>
<!-- 3 -->
<g id="node4" class="node">
<title>3</title>
<path fill="none" stroke="#56d87b" stroke-width="2" d="M68,-252C68,-252 25,-252 25,-252 19,-252 13,-246 13,-240 13,-240 13,-228 13,-228 13,-222 19,-216 25,-216 25,-216 68,-216 68,-216 74,-216 80,-222 80,-228 80,-228 80,-240 80,-240 80,-246 74,-252 68,-252"/>
<text text-anchor="middle" x="46.5" y="-231.5" font-family="sans" font-size="10.00">trim_galore</text>
</g>
<!-- 3&#45;&gt;2 -->
<g id="edge4" class="edge">
<title>3&#45;&gt;2</title>
<path fill="none" stroke="grey" stroke-width="2" d="M44.03,-215.7C42.93,-207.98 41.6,-198.71 40.37,-190.11"/>
<polygon fill="grey" stroke="grey" stroke-width="2" points="43.82,-189.51 38.94,-180.1 36.89,-190.5 43.82,-189.51"/>
</g>
<!-- 4 -->
<g id="node5" class="node">
<title>4</title>
<path fill="none" stroke="#56a2d8" stroke-width="2" d="M101.5,-324C101.5,-324 53.5,-324 53.5,-324 47.5,-324 41.5,-318 41.5,-312 41.5,-312 41.5,-300 41.5,-300 41.5,-294 47.5,-288 53.5,-288 53.5,-288 101.5,-288 101.5,-288 107.5,-288 113.5,-294 113.5,-300 113.5,-300 113.5,-312 113.5,-312 113.5,-318 107.5,-324 101.5,-324"/>
<text text-anchor="middle" x="77.5" y="-303.5" font-family="sans" font-size="10.00">sra_to_fastq</text>
</g>
<!-- 4&#45;&gt;3 -->
<g id="edge5" class="edge">
<title>4&#45;&gt;3</title>
<path fill="none" stroke="grey" stroke-width="2" d="M69.84,-287.7C66.31,-279.73 62.04,-270.1 58.13,-261.26"/>
<polygon fill="grey" stroke="grey" stroke-width="2" points="61.32,-259.83 54.07,-252.1 54.92,-262.67 61.32,-259.83"/>
</g>
<!-- 6 -->
<g id="node7" class="node">
<title>6</title>
<path fill="none" stroke="#78d856" stroke-width="2" d="M133.5,-180C133.5,-180 103.5,-180 103.5,-180 97.5,-180 91.5,-174 91.5,-168 91.5,-168 91.5,-156 91.5,-156 91.5,-150 97.5,-144 103.5,-144 103.5,-144 133.5,-144 133.5,-144 139.5,-144 145.5,-150 145.5,-156 145.5,-156 145.5,-168 145.5,-168 145.5,-174 139.5,-180 133.5,-180"/>
<text text-anchor="middle" x="118.5" y="-159.5" font-family="sans" font-size="10.00">fastqc</text>
</g>
<!-- 4&#45;&gt;6 -->
<g id="edge7" class="edge">
<title>4&#45;&gt;6</title>
<path fill="none" stroke="grey" stroke-width="2" d="M82.45,-287.87C89.46,-263.56 102.38,-218.82 110.7,-190.01"/>
<polygon fill="grey" stroke="grey" stroke-width="2" points="114.13,-190.77 113.54,-180.19 107.4,-188.83 114.13,-190.77"/>
</g>
<!-- 5 -->
<g id="node6" class="node">
<title>5</title>
<path fill="none" stroke="#d85656" stroke-width="2" stroke-dasharray="5,2" d="M122.5,-396C122.5,-396 32.5,-396 32.5,-396 26.5,-396 20.5,-390 20.5,-384 20.5,-384 20.5,-372 20.5,-372 20.5,-366 26.5,-360 32.5,-360 32.5,-360 122.5,-360 122.5,-360 128.5,-360 134.5,-366 134.5,-372 134.5,-372 134.5,-384 134.5,-384 134.5,-390 128.5,-396 122.5,-396"/>
<text text-anchor="middle" x="77.5" y="-381" font-family="sans" font-size="10.00">prefetch_sra</text>
<text text-anchor="middle" x="77.5" y="-370" font-family="sans" font-size="10.00">sample: SRR9670112</text>
</g>
<!-- 5&#45;&gt;4 -->
<g id="edge6" class="edge">
<title>5&#45;&gt;4</title>
<path fill="none" stroke="grey" stroke-width="2" d="M77.5,-359.7C77.5,-351.98 77.5,-342.71 77.5,-334.11"/>
<polygon fill="grey" stroke="grey" stroke-width="2" points="81,-334.1 77.5,-324.1 74,-334.1 81,-334.1"/>
</g>
<!-- 6&#45;&gt;0 -->
<g id="edge2" class="edge">
<title>6&#45;&gt;0</title>
<path fill="none" stroke="grey" stroke-width="2" d="M113.55,-143.87C106.54,-119.56 93.62,-74.82 85.3,-46.01"/>
<polygon fill="grey" stroke="grey" stroke-width="2" points="88.6,-44.83 82.46,-36.19 81.87,-46.77 88.6,-44.83"/>
</g>
</g>
</svg>
